<svg width="195" height="34" viewBox="0 0 195 34" fill="none" xmlns="http://www.w3.org/2000/svg">
<path d="M178.216 28.2379H187.151C187.327 28.2379 187.496 28.1402 187.588 27.9839L194.873 15.1446C195.042 14.8517 195.042 14.4871 194.873 14.1941L187.588 2.27931C187.496 2.12305 187.327 2.02539 187.151 2.02539H178.216C177.818 2.02539 177.57 2.46812 177.779 2.81971L185.025 14.6694L177.779 27.437C177.57 27.7886 177.818 28.2379 178.216 28.2379Z" fill="#EA4B6E"/>
<path d="M85.3674 14.7602L92.6134 2.91053C92.8221 2.55894 92.5743 2.11621 92.1764 2.11621H83.2412C83.0651 2.11621 82.8955 2.20736 82.8042 2.37013L75.519 14.2849C75.3495 14.5714 75.3495 14.9425 75.519 15.2355L82.8042 28.0747C82.8955 28.231 83.0651 28.3287 83.2412 28.3287H92.1764C92.5743 28.3287 92.8221 27.8794 92.6134 27.5278L85.3674 14.7602Z" fill="#EA4B6E"/>
<path d="M73.1774 2.11621H65.2987C65.0183 2.11621 64.79 2.3506 64.79 2.63707V27.8013C64.79 28.0943 65.0183 28.3287 65.2987 28.3287H73.1774C73.4643 28.3287 73.6861 28.0943 73.6861 27.8013V2.63707C73.6861 2.3506 73.4643 2.11621 73.1774 2.11621Z" fill="#1E86C8"/>
<path d="M8.39392 0H0.508722C0.228273 0 0 0.234389 0 0.527374V32.567C0 32.86 0.228273 33.0944 0.508722 33.0944H8.39392C8.67437 33.0944 8.90264 32.86 8.90264 32.567V0.527374C8.90264 0.234389 8.67437 0 8.39392 0Z" fill="#1E86C8"/>
<path d="M60.4594 21.7267H57.4332V2.63707C57.4332 2.3506 57.2049 2.11621 56.9244 2.11621H49.0392C48.7588 2.11621 48.5305 2.3506 48.5305 2.63707V20.4766H41.1736V2.63707C41.1736 2.3506 40.9453 2.11621 40.6649 2.11621H32.7797C32.4992 2.11621 32.271 2.3506 32.271 2.63707V27.8013C32.271 28.0943 32.4992 28.3287 32.7797 28.3287H52.072V33.1857C52.072 33.4722 52.2938 33.7066 52.5807 33.7066H60.4594C60.7399 33.7066 60.9681 33.4722 60.9681 33.1857V22.2541C60.9681 21.9611 60.7399 21.7267 60.4594 21.7267Z" fill="#1E86C8"/>
<path d="M21.2876 2.37013C21.1963 2.20736 21.0332 2.11621 20.8572 2.11621H11.9154C11.5175 2.11621 11.2762 2.55894 11.4784 2.91053L18.7244 14.7602L11.4784 27.5278C11.2762 27.8794 11.5175 28.3287 11.9154 28.3287H20.8572C21.0332 28.3287 21.1963 28.231 21.2876 28.0747L28.5728 15.2355C28.7489 14.9425 28.7489 14.5779 28.5728 14.2849L21.2876 2.37013Z" fill="#1E86C8"/>
<path d="M171.472 23.478H118.734V27.8793H171.472V23.478Z" fill="#EA4B6E"/>
<path d="M120.371 24.1484H121.089V25.4571H121.571L122.061 24.5391C122.132 24.4089 122.217 24.3112 122.302 24.2461C122.393 24.181 122.511 24.1484 122.654 24.1484H122.948V24.7865H122.654L122.315 25.4311C122.269 25.5157 122.217 25.5808 122.165 25.6264C122.106 25.672 122.041 25.7045 121.969 25.7306V25.7631C122.048 25.7761 122.119 25.8087 122.178 25.8543C122.237 25.8998 122.289 25.9649 122.328 26.0561L122.719 26.8113H123.013V27.4494H122.641C122.504 27.4494 122.393 27.4234 122.308 27.3648C122.224 27.3062 122.139 27.202 122.061 27.0457L121.571 26.0952H121.089V27.4494H120.371V24.1484ZM127.004 27.4494L126.77 26.6681H125.667L125.426 27.4494H124.696L125.785 24.1484H126.678L127.754 27.4494H127.004ZM126.222 24.7995H126.202L125.837 26.0561H126.593L126.222 24.7995ZM129.346 26.8113H129.737C129.789 26.7593 129.828 26.6942 129.868 26.6095C129.907 26.5314 129.939 26.4272 129.965 26.3035C129.991 26.1733 130.011 26.0235 130.031 25.8478C130.044 25.6655 130.05 25.4506 130.05 25.1967V24.1484H132.385V27.4494H131.661V24.7865H130.748V25.3008C130.748 25.5873 130.742 25.8412 130.715 26.0561C130.696 26.2644 130.663 26.4467 130.624 26.5965C130.591 26.7528 130.546 26.8765 130.494 26.9741C130.441 27.0718 130.383 27.1499 130.324 27.2085C130.226 27.3062 130.122 27.3778 130.011 27.4169C129.894 27.4559 129.757 27.4755 129.587 27.4755H129.346V26.8113ZM134.511 24.1484H135.216V25.7631L135.137 26.4598H135.15L135.483 25.8282L136.572 24.1484H137.211V27.4494H136.514V25.8347L136.585 25.1446H136.572L136.246 25.7696L135.157 27.4494H134.511V24.1484ZM141.32 26.0952H140.062V27.4494H139.344V24.1484H140.062V25.4571H141.32V24.1484H142.044V27.4494H141.32V26.0952ZM144.17 24.1484H144.875V25.7631L144.797 26.4598H144.816L145.142 25.8282L146.231 24.1484H146.871V27.4494H146.173V25.8347L146.251 25.1446H146.231L145.905 25.7696L144.816 27.4494H144.17V24.1484ZM150.986 26.0952H149.721V27.4494H149.003V24.1484H149.721V25.4571H150.986V24.1484H151.703V27.4494H150.986V26.0952ZM153.836 24.1484H155.773V24.7865H154.554V27.4494H153.836V24.1484ZM157.671 27.4494V24.1484H159.23C159.386 24.1484 159.523 24.1745 159.647 24.2266C159.771 24.2787 159.876 24.3503 159.96 24.4414C160.052 24.5326 160.117 24.6433 160.163 24.78C160.215 24.9102 160.234 25.0534 160.234 25.2032C160.234 25.3594 160.215 25.5027 160.163 25.6329C160.117 25.7631 160.052 25.8738 159.96 25.9649C159.876 26.0561 159.771 26.1277 159.647 26.1798C159.523 26.2319 159.386 26.2579 159.23 26.2579H158.389V27.4494H157.671ZM158.389 25.6329H159.145C159.256 25.6329 159.341 25.6069 159.4 25.5548C159.458 25.4962 159.491 25.418 159.491 25.3074V25.099C159.491 24.9948 159.458 24.9102 159.4 24.8581C159.341 24.7995 159.256 24.7735 159.145 24.7735H158.389V25.6329ZM163.867 27.4494L163.632 26.6681H162.53L162.289 27.4494H161.558L162.648 24.1484H163.541L164.617 27.4494H163.867ZM163.084 24.7995H163.065L162.7 26.0561H163.456L163.084 24.7995ZM166.189 26.8113H166.554C166.606 26.7593 166.659 26.6942 166.704 26.6095C166.75 26.5249 166.789 26.4207 166.828 26.297C166.861 26.1733 166.887 26.017 166.906 25.8347C166.926 25.6589 166.933 25.4441 166.933 25.1967V24.1484H169.307V26.8113H169.841V27.6708H169.163V27.4494H166.867V27.6708H166.189V26.8113ZM168.589 26.8113V24.7865H167.637V25.3008C167.637 25.5222 167.63 25.7045 167.617 25.8673C167.604 26.0235 167.585 26.1603 167.565 26.284C167.546 26.4012 167.513 26.4988 167.48 26.5835C167.448 26.6681 167.409 26.7397 167.369 26.7983V26.8113H168.589Z" fill="#FEFEFE"/>
<path d="M125.582 6.09412H123.991L123.665 6.91448H122.654L124.356 2.57178H125.243L126.906 6.91448H125.895L125.582 6.09412ZM125.315 5.32584L124.8 3.86742L124.271 5.32584H125.315Z" fill="#1E86C8"/>
<path d="M131.309 2.57178V6.91448H130.337V3.41818H129.196V4.90915C129.196 5.65138 129.104 6.26991 128.772 6.62149C128.596 6.80379 128.302 6.96656 127.826 6.96656C127.676 6.96656 127.552 6.94703 127.435 6.91448V6.01599C127.5 6.04203 127.585 6.05505 127.67 6.05505C127.839 6.05505 127.976 5.99645 128.054 5.91181C128.237 5.72951 128.25 5.34537 128.25 5.0003V2.57178H131.309Z" fill="#1E86C8"/>
<path d="M132.241 2.57178H133.22V4.26458H133.813C134.172 4.26458 134.635 4.30365 134.968 4.62919C135.268 4.92217 135.32 5.30631 135.32 5.59278C135.32 5.87926 135.268 6.2634 134.981 6.54987C134.635 6.88843 134.133 6.91448 133.781 6.91448H132.241V2.57178ZM133.22 6.10714H133.644C133.82 6.10714 134.022 6.08761 134.152 5.98994C134.231 5.93786 134.335 5.81415 134.335 5.58627C134.335 5.31282 134.192 5.19563 134.159 5.17609C134.087 5.12401 133.957 5.07192 133.65 5.07192H133.22V6.10714Z" fill="#1E86C8"/>
<path d="M136.931 4.22552H138.614V2.57178H139.585V6.91448H138.614V5.07192H136.931V6.91448H135.959V2.57178H136.931V4.22552Z" fill="#1E86C8"/>
<path d="M140.518 2.57178H141.49V4.26458H142.07C142.429 4.26458 142.892 4.30365 143.225 4.62919C143.531 4.92217 143.583 5.30631 143.583 5.59278C143.583 5.87926 143.531 6.2634 143.238 6.54987C142.892 6.88843 142.39 6.91448 142.038 6.91448H140.518V2.57178ZM141.49 6.10714H141.92C142.09 6.10714 142.292 6.08761 142.422 5.98994C142.501 5.93786 142.605 5.81415 142.605 5.58627C142.605 5.31282 142.462 5.19563 142.429 5.17609C142.364 5.12401 142.227 5.07192 141.927 5.07192H141.49V6.10714ZM144.947 6.91448H143.975V2.57178H144.947V6.91448ZM144.947 2.57178V6.91448V2.57178Z" fill="#1E86C8"/>
<path d="M146.851 2.57202V5.41073L148.801 2.51994H149.662V6.91472H148.69V4.06951L146.733 6.96681H145.879V2.57202H146.851ZM149.023 1.43263C148.918 1.69307 148.736 1.8949 148.546 2.01861C148.292 2.17486 148.018 2.20091 147.764 2.20091C147.523 2.20091 147.249 2.17486 146.994 2.01861C146.805 1.8949 146.622 1.69307 146.518 1.43263L147.183 1.13965C147.229 1.25684 147.314 1.38706 147.392 1.45217C147.49 1.52379 147.633 1.56285 147.777 1.56285C147.875 1.56285 148.025 1.54983 148.149 1.45217C148.246 1.37404 148.325 1.24382 148.351 1.13965L149.023 1.43263Z" fill="#1E86C8"/>
<path d="M152.081 2.57178H153.053V6.06807H154.612V2.57178H155.584V6.06807H156.151V7.8911H155.284V6.91448H152.081V2.57178Z" fill="#1E86C8"/>
<path d="M159.484 3.41818H158.076V4.25807H159.419V5.10448H158.076V6.06807H159.484V6.91448H157.104V2.57178H159.484V3.41818Z" fill="#1E86C8"/>
<path d="M161.676 4.22552H163.359V2.57178H164.33V6.91448H163.359V5.07192H161.676V6.91448H160.704V2.57178H161.676V4.22552Z" fill="#1E86C8"/>
<path d="M167.161 3.41818V6.91448H166.182V3.41818H165.269V2.57178H168.074V3.41818H167.161Z" fill="#1E86C8"/>
<path d="M170.5 2.57178C170.865 2.57178 171.27 2.62386 171.602 2.92987C171.968 3.25541 172.013 3.68512 172.013 3.98462C172.013 4.53153 171.811 4.83753 171.655 5.00681C171.322 5.3584 170.878 5.39095 170.578 5.39095H169.985V6.91448H169.013V2.57178H170.5ZM169.985 4.57059H170.337C170.467 4.57059 170.702 4.56408 170.859 4.40782C170.95 4.31667 171.015 4.16692 171.015 3.97811C171.015 3.79581 170.957 3.64606 170.859 3.55491C170.715 3.41167 170.507 3.39214 170.317 3.39214H169.985V4.57059Z" fill="#1E86C8"/>
<path d="M99.833 11.3481L101.274 9.53809H102.461L100.753 11.5955L102.592 13.8808H101.346L99.833 11.9536V13.8808H98.8612V9.53809H99.833V11.3481Z" fill="#1E86C8"/>
<path d="M106.616 10.072C107.014 10.4691 107.275 11.0421 107.275 11.7127C107.275 12.2922 107.073 12.8846 106.616 13.3404C106.225 13.731 105.697 13.9785 104.986 13.9785C104.196 13.9785 103.662 13.6529 103.342 13.3404C102.938 12.9497 102.69 12.3638 102.69 11.7257C102.69 11.1007 102.957 10.4691 103.336 10.0785C103.623 9.7855 104.144 9.44043 104.986 9.44043C105.644 9.44043 106.192 9.64878 106.616 10.072ZM104.059 10.7361C103.877 10.9184 103.688 11.2374 103.688 11.7192C103.688 12.1164 103.812 12.4354 104.073 12.6958C104.34 12.9628 104.646 13.0539 104.973 13.0539C105.403 13.0539 105.71 12.8912 105.912 12.6828C106.075 12.52 106.277 12.214 106.277 11.7127C106.277 11.2635 106.101 10.9314 105.912 10.7361C105.703 10.5277 105.364 10.365 104.979 10.365C104.614 10.365 104.288 10.5017 104.059 10.7361Z" fill="#1E86C8"/>
<path d="M107.856 13.8808L108.534 9.53809H109.343L110.393 12.1359L111.443 9.53809H112.252L112.923 13.8808H111.952L111.619 11.2895L110.562 13.8808H110.223L109.167 11.2895L108.834 13.8808H107.856Z" fill="#1E86C8"/>
<path d="M117.248 9.53809V13.8808H116.276V10.3845H114.678V13.8808H113.706V9.53809H117.248Z" fill="#1E86C8"/>
<path d="M120.606 10.3845H119.197V11.2244H120.541V12.0708H119.197V13.0344H120.606V13.8808H118.226V9.53809H120.606V10.3845Z" fill="#1E86C8"/>
<path d="M122.934 10.3845V13.8808H121.956V10.3845H121.043V9.53809H123.847V10.3845H122.934Z" fill="#1E86C8"/>
<path d="M126.795 10.3845H125.387V11.2244H126.724V12.0708H125.387V13.0344H126.795V13.8808H124.415V9.53809H126.795V10.3845Z" fill="#1E86C8"/>
<path d="M128.615 11.1918H130.298V9.53809H131.27V13.8808H130.298V12.0382H128.615V13.8808H127.643V9.53809H128.615V11.1918Z" fill="#1E86C8"/>
<path d="M132.248 9.53809H133.22V13.0344H134.778V9.53809H135.75V13.0344H136.318V14.8574H135.45V13.8808H132.248V9.53809Z" fill="#1E86C8"/>
<path d="M137.87 9.53793V12.3766L139.827 9.48584H140.681V13.8806H139.709V11.0354L137.759 13.9327H136.898V9.53793H137.87Z" fill="#1E86C8"/>
<path d="M142.631 9.53833V12.377L144.588 9.48625H145.442V13.881H144.47V11.0358L142.52 13.9331H141.659V9.53833H142.631ZM144.803 8.39894C144.699 8.65937 144.516 8.86121 144.327 8.98491C144.073 9.14117 143.805 9.16722 143.551 9.16722C143.303 9.16722 143.029 9.14117 142.781 8.98491C142.592 8.86121 142.403 8.65937 142.299 8.39894L142.97 8.10596C143.009 8.22315 143.094 8.35337 143.179 8.41848C143.27 8.49009 143.414 8.52916 143.564 8.52916C143.655 8.52916 143.812 8.51614 143.936 8.41848C144.027 8.34035 144.105 8.21013 144.138 8.10596L144.803 8.39894Z" fill="#1E86C8"/>
<path d="M149.238 9.53809C149.466 9.53809 149.982 9.55111 150.314 9.87014C150.582 10.1371 150.614 10.5017 150.614 10.6905C150.614 10.8598 150.588 11.0551 150.477 11.2439C150.366 11.4262 150.223 11.5174 150.125 11.5629C150.327 11.5955 150.549 11.6997 150.706 11.8559C150.843 11.9992 150.973 12.2466 150.973 12.6307C150.973 13.0669 150.81 13.3404 150.647 13.5097C150.301 13.8547 149.793 13.8808 149.538 13.8808H147.947V9.53809H149.238ZM148.912 11.3025H149.069C149.199 11.3025 149.421 11.283 149.558 11.1788C149.649 11.1137 149.727 10.9835 149.727 10.7947C149.727 10.6059 149.642 10.4887 149.564 10.4301C149.427 10.3194 149.238 10.3194 149.062 10.3194H148.912V11.3025ZM148.912 13.0995H149.14C149.388 13.0995 149.688 13.093 149.864 12.9237C149.949 12.8391 150.001 12.7154 150.001 12.5591C150.001 12.3833 149.929 12.2661 149.871 12.2075C149.701 12.0447 149.369 12.0447 149.173 12.0447H148.912V13.0995Z" fill="#1E86C8"/>
<path d="M156.328 13.7441C155.956 13.9394 155.656 13.9785 155.401 13.9785C154.625 13.9785 154.097 13.705 153.745 13.3469C153.367 12.9693 153.086 12.3963 153.086 11.6997C153.086 11.016 153.367 10.4431 153.745 10.0655C154.117 9.69435 154.664 9.44043 155.317 9.44043C155.597 9.44043 155.917 9.49903 156.328 9.68133V10.8403C156.112 10.6059 155.793 10.378 155.343 10.378C154.991 10.378 154.704 10.4952 154.488 10.7165C154.254 10.9509 154.084 11.3025 154.084 11.7192C154.084 12.1685 154.267 12.4875 154.456 12.6763C154.54 12.7674 154.847 13.0409 155.362 13.0409C155.617 13.0409 155.956 12.9693 156.328 12.5917V13.7441Z" fill="#1E86C8"/>
<path d="M158.904 13.2756H158.858C158.584 13.2756 157.815 13.23 157.365 12.7352C157.136 12.4813 156.967 12.0776 156.967 11.5438C156.967 10.9773 157.169 10.6062 157.378 10.3783C157.834 9.8835 158.584 9.83141 158.858 9.83141H158.904V9.23242H159.882V9.83141H159.928C160.202 9.83141 160.952 9.8835 161.408 10.3783C161.617 10.6062 161.819 10.9773 161.819 11.5438C161.819 12.0776 161.65 12.4813 161.422 12.7352C160.971 13.23 160.202 13.2756 159.928 13.2756H159.882V13.8811H158.904V13.2756ZM158.904 10.6388C158.689 10.6388 158.382 10.6713 158.167 10.8927C158.063 10.9968 157.939 11.2052 157.939 11.5568C157.939 11.9018 158.056 12.0972 158.167 12.2144C158.382 12.4357 158.689 12.4683 158.904 12.4683H158.943V10.6388H158.904ZM159.843 12.4683H159.882C160.091 12.4683 160.404 12.4357 160.619 12.2144C160.73 12.0972 160.848 11.9018 160.848 11.5568C160.848 11.2052 160.717 10.9968 160.619 10.8927C160.404 10.6713 160.091 10.6388 159.882 10.6388H159.843V12.4683Z" fill="#1E86C8"/>
<path d="M164.982 10.3845H163.573V11.2244H164.91V12.0708H163.573V13.0344H164.982V13.8808H162.602V9.53809H164.982V10.3845Z" fill="#1E86C8"/>
<path d="M167.311 9.53809C167.676 9.53809 168.08 9.59017 168.413 9.89618C168.778 10.2217 168.824 10.6514 168.824 10.9509C168.824 11.4978 168.622 11.8038 168.465 11.9731C168.132 12.3247 167.689 12.3573 167.389 12.3573H166.795V13.8808H165.824V9.53809H167.311ZM166.795 11.5369H167.148C167.278 11.5369 167.513 11.5304 167.669 11.3741C167.761 11.283 167.826 11.1332 167.826 10.9444C167.826 10.7621 167.767 10.6124 167.669 10.5212C167.526 10.378 167.317 10.3584 167.128 10.3584H166.795V11.5369Z" fill="#1E86C8"/>
<path d="M171.876 10.3845H170.468V11.2244H171.805V12.0708H170.468V13.0344H171.876V13.8808H169.496V9.53809H171.876V10.3845Z" fill="#1E86C8"/>
<path d="M102.403 16.5049V20.8476H101.431V17.3513H99.833V20.8476H98.8612V16.5049H102.403Z" fill="#1E86C8"/>
<path d="M104.731 16.5049C105.096 16.5049 105.501 16.557 105.84 16.863C106.199 17.1885 106.251 17.6182 106.251 17.9177C106.251 18.4646 106.049 18.7706 105.892 18.9399C105.553 19.2915 105.109 19.3241 104.816 19.3241H104.222V20.8476H103.251V16.5049H104.731ZM104.222 18.5037H104.568C104.698 18.5037 104.933 18.4972 105.096 18.3409C105.181 18.2498 105.253 18.1 105.253 17.9112C105.253 17.7289 105.188 17.5792 105.096 17.488C104.946 17.3448 104.738 17.3252 104.548 17.3252H104.222V18.5037Z" fill="#1E86C8"/>
<path d="M110.517 17.0388C110.914 17.4359 111.175 18.0089 111.175 18.6795C111.175 19.259 110.973 19.8514 110.517 20.3072C110.125 20.6978 109.597 20.9453 108.886 20.9453C108.097 20.9453 107.562 20.6197 107.249 20.3072C106.845 19.9165 106.59 19.3306 106.59 18.6925C106.59 18.0675 106.858 17.4359 107.242 17.0453C107.523 16.7523 108.051 16.4072 108.886 16.4072C109.545 16.4072 110.093 16.6156 110.517 17.0388ZM107.96 17.7029C107.777 17.8852 107.588 18.2042 107.588 18.686C107.588 19.0832 107.712 19.4022 107.973 19.6626C108.247 19.9296 108.547 20.0207 108.879 20.0207C109.303 20.0207 109.61 19.8579 109.812 19.6496C109.975 19.4868 110.177 19.1808 110.177 18.6795C110.177 18.2302 110.001 17.8982 109.812 17.7029C109.603 17.4945 109.271 17.3318 108.879 17.3318C108.514 17.3318 108.188 17.4685 107.96 17.7029Z" fill="#1E86C8"/>
<path d="M112.799 16.5052V19.3439L114.75 16.4531H115.61V20.8479H114.639V18.0027L112.682 20.9H111.828V16.5052H112.799Z" fill="#1E86C8"/>
<path d="M116.373 16.8955C116.569 16.7328 116.739 16.6416 116.947 16.5635C117.208 16.4593 117.43 16.4072 117.769 16.4072C118.141 16.4072 118.578 16.4788 118.897 16.8044C119.139 17.0453 119.217 17.3383 119.217 17.6573C119.217 17.8656 119.178 18.0479 119.054 18.2237C118.93 18.406 118.78 18.4907 118.65 18.5428C118.826 18.5949 119.021 18.6925 119.171 18.8488C119.289 18.9725 119.452 19.2264 119.452 19.6236C119.452 19.9817 119.315 20.2811 119.113 20.496C118.741 20.8867 118.232 20.9453 117.841 20.9453C117.495 20.9453 117.156 20.9062 116.83 20.7564C116.608 20.6588 116.373 20.4895 116.178 20.3007L116.726 19.565C116.836 19.7017 116.993 19.8384 117.156 19.9231C117.339 20.0207 117.541 20.0598 117.73 20.0598C117.913 20.0598 118.095 20.0142 118.213 19.9296C118.33 19.8449 118.415 19.7082 118.415 19.5259C118.415 19.3631 118.343 19.2459 118.265 19.1808C118.154 19.0897 117.945 19.0181 117.463 19.0181H117.306V18.2107H117.449C117.756 18.2107 117.997 18.1782 118.147 18.0414C118.206 17.9828 118.265 17.8852 118.265 17.7485C118.265 17.6052 118.193 17.488 118.095 17.4099C117.984 17.3252 117.808 17.2927 117.652 17.2927C117.476 17.2927 117.313 17.3383 117.182 17.4034C117.052 17.462 116.908 17.5661 116.797 17.6638L116.373 16.8955Z" fill="#1E86C8"/>
<path d="M121.389 16.5049C121.617 16.5049 122.139 16.5179 122.465 16.8369C122.739 17.1039 122.772 17.4685 122.772 17.6573C122.772 17.8266 122.746 18.0219 122.628 18.2107C122.524 18.393 122.374 18.4842 122.276 18.5297C122.478 18.5623 122.706 18.6665 122.856 18.8227C122.993 18.966 123.13 19.2134 123.13 19.5975C123.13 20.0337 122.961 20.3072 122.798 20.4765C122.452 20.8215 121.95 20.8476 121.689 20.8476H120.104V16.5049H121.389ZM121.063 18.2693H121.219C121.356 18.2693 121.572 18.2498 121.715 18.1456C121.8 18.0805 121.885 17.9503 121.885 17.7615C121.885 17.5727 121.793 17.4555 121.722 17.3969C121.578 17.2862 121.389 17.2862 121.213 17.2862H121.063V18.2693ZM121.063 20.0663H121.298C121.546 20.0663 121.839 20.0598 122.015 19.8905C122.106 19.8059 122.159 19.6822 122.159 19.5259C122.159 19.3501 122.087 19.2329 122.022 19.1743C121.852 19.0115 121.526 19.0115 121.33 19.0115H121.063V20.0663Z" fill="#1E86C8"/>
<path d="M127.513 17.0388C127.91 17.4359 128.165 18.0089 128.165 18.6795C128.165 19.259 127.963 19.8514 127.513 20.3072C127.121 20.6978 126.586 20.9453 125.882 20.9453C125.093 20.9453 124.552 20.6197 124.239 20.3072C123.834 19.9165 123.58 19.3306 123.58 18.6925C123.58 18.0675 123.854 17.4359 124.232 17.0453C124.519 16.7523 125.041 16.4072 125.882 16.4072C126.541 16.4072 127.089 16.6156 127.513 17.0388ZM124.949 17.7029C124.767 17.8852 124.578 18.2042 124.578 18.686C124.578 19.0832 124.708 19.4022 124.962 19.6626C125.236 19.9296 125.543 20.0207 125.869 20.0207C126.299 20.0207 126.6 19.8579 126.802 19.6496C126.965 19.4868 127.167 19.1808 127.167 18.6795C127.167 18.2302 126.991 17.8982 126.802 17.7029C126.593 17.4945 126.26 17.3318 125.876 17.3318C125.51 17.3318 125.178 17.4685 124.949 17.7029Z" fill="#1E86C8"/>
<path d="M132.248 16.5049V20.0142H132.718V21.8242H131.85V20.8476H129.268V21.8242H128.394V20.0142C128.667 19.9621 128.831 19.8124 128.87 19.7733C129.222 19.4347 129.228 18.8162 129.228 18.3409V16.5049H132.248ZM130.161 18.3084C130.161 18.6079 130.148 19.0571 130.083 19.3241C130.031 19.5129 129.926 19.7733 129.698 20.0142H131.289V17.3383H130.161V18.3084Z" fill="#1E86C8"/>
<path d="M134.139 16.5052V19.3439L136.089 16.4531H136.95V20.8479H135.979V18.0027L134.028 20.9H133.168V16.5052H134.139Z" fill="#1E86C8"/>
<path d="M139.273 17.3513V20.8476H138.301V17.3513H137.388V16.5049H140.192V17.3513H139.273Z" fill="#1E86C8"/>
<path d="M143.009 17.3513H141.601V18.1912H142.938V19.0376H141.601V20.0012H143.009V20.8476H140.622V16.5049H143.009V17.3513Z" fill="#1E86C8"/>
<path d="M147.196 16.5049V20.8476H146.225V17.3513H145.083V18.8423C145.083 19.5845 144.992 20.203 144.659 20.5546C144.483 20.7369 144.19 20.8997 143.714 20.8997C143.564 20.8997 143.44 20.8801 143.322 20.8476V19.9491C143.387 19.9751 143.472 19.9882 143.557 19.9882C143.727 19.9882 143.864 19.9296 143.948 19.8449C144.124 19.6626 144.138 19.2785 144.138 18.9334V16.5049H147.196Z" fill="#1E86C8"/>
<path d="M148.044 16.5049H149.016V18.1977H149.61C149.968 18.1977 150.431 18.2368 150.764 18.5623C151.071 18.8553 151.123 19.2394 151.123 19.5259C151.123 19.8124 151.071 20.1965 150.777 20.483C150.431 20.8215 149.936 20.8476 149.577 20.8476H148.044V16.5049ZM149.016 20.0402H149.447C149.616 20.0402 149.818 20.0207 149.955 19.9231C150.027 19.871 150.138 19.7473 150.138 19.5194C150.138 19.2459 149.988 19.1287 149.955 19.1092C149.89 19.0571 149.753 19.005 149.453 19.005H149.016V20.0402Z" fill="#1E86C8"/>
<path d="M152.643 18.1586H154.319V16.5049H155.297V20.8476H154.319V19.005H152.643V20.8476H151.671V16.5049H152.643V18.1586Z" fill="#1E86C8"/>
<path d="M159.876 17.0388C160.273 17.4359 160.528 18.0089 160.528 18.6795C160.528 19.259 160.326 19.8514 159.876 20.3072C159.484 20.6978 158.949 20.9453 158.245 20.9453C157.456 20.9453 156.915 20.6197 156.602 20.3072C156.197 19.9165 155.943 19.3306 155.943 18.6925C155.943 18.0675 156.217 17.4359 156.595 17.0453C156.875 16.7523 157.404 16.4072 158.245 16.4072C158.897 16.4072 159.452 16.6156 159.876 17.0388ZM157.312 17.7029C157.13 17.8852 156.941 18.2042 156.941 18.686C156.941 19.0832 157.071 19.4022 157.325 19.6626C157.599 19.9296 157.899 20.0207 158.232 20.0207C158.663 20.0207 158.963 19.8579 159.165 19.6496C159.328 19.4868 159.53 19.1808 159.53 18.6795C159.53 18.2302 159.354 17.8982 159.165 17.7029C158.956 17.4945 158.623 17.3318 158.239 17.3318C157.873 17.3318 157.541 17.4685 157.312 17.7029Z" fill="#1E86C8"/>
<path d="M164.226 20.7109C163.848 20.9062 163.548 20.9453 163.293 20.9453C162.517 20.9453 161.995 20.6718 161.643 20.3137C161.258 19.9361 160.984 19.3631 160.984 18.6665C160.984 17.9828 161.258 17.4099 161.643 17.0323C162.015 16.6611 162.556 16.4072 163.215 16.4072C163.489 16.4072 163.815 16.4658 164.226 16.6481V17.807C164.011 17.5727 163.684 17.3448 163.234 17.3448C162.882 17.3448 162.602 17.462 162.38 17.6833C162.145 17.9177 161.982 18.2693 161.982 18.686C161.982 19.1352 162.158 19.4543 162.347 19.6431C162.439 19.7342 162.739 20.0077 163.254 20.0077C163.508 20.0077 163.848 19.9361 164.226 19.5585V20.7109Z" fill="#1E86C8"/>
<path d="M166.535 17.3513V20.8476H165.563V17.3513H164.643V16.5049H167.448V17.3513H166.535Z" fill="#1E86C8"/>
<path d="M168.856 16.5052V19.3439L170.806 16.4531H171.667V20.8479H170.695V18.0027L168.745 20.9H167.884V16.5052H168.856Z" fill="#1E86C8"/>
<path d="M100.335 24.3181V27.8144H99.3636V24.3181H98.4505V23.4717H101.255V24.3181H100.335Z" fill="#1E86C8"/>
<path d="M103.062 23.4717C103.427 23.4717 103.831 23.5238 104.164 23.8298C104.523 24.1553 104.575 24.585 104.575 24.8845C104.575 25.4314 104.373 25.7374 104.216 25.9067C103.884 26.2583 103.44 26.2909 103.14 26.2909H102.547V27.8144H101.575V23.4717H103.062ZM102.547 25.4705H102.899C103.029 25.4705 103.264 25.464 103.421 25.3077C103.512 25.2166 103.577 25.0668 103.577 24.878C103.577 24.6957 103.518 24.546 103.421 24.4548C103.277 24.3116 103.068 24.292 102.879 24.292H102.547V25.4705Z" fill="#1E86C8"/>
<path d="M105.651 23.4717L106.531 25.477L107.379 23.4717H108.429L106.499 27.8144H105.455L106.068 26.5643L104.562 23.4717H105.651Z" fill="#1E86C8"/>
<path d="M111.84 23.4717V26.981H112.31V28.791H111.442V27.8144H108.853V28.791H107.985V26.981C108.253 26.9289 108.422 26.7792 108.455 26.7401C108.814 26.4015 108.82 25.783 108.82 25.3077V23.4717H111.84ZM109.753 25.2752C109.753 25.5747 109.74 26.0239 109.668 26.2909C109.623 26.4797 109.518 26.7401 109.29 26.981H110.875V24.3051H109.753V25.2752Z" fill="#1E86C8"/>
<path d="M115.251 26.994H113.66L113.34 27.8144H112.329L114.025 23.4717H114.919L116.582 27.8144H115.571L115.251 26.994ZM114.991 26.2257L114.469 24.7673L113.947 26.2257H114.991Z" fill="#1E86C8"/>
<path d="M100.16 2.58496C100.525 2.58496 100.929 2.63705 101.262 2.94305C101.627 3.26859 101.673 3.69831 101.673 3.9978C101.673 4.54471 101.47 4.85072 101.314 5.02C100.981 5.37158 100.538 5.40413 100.244 5.40413H99.6443V6.92766H98.6725V2.58496H100.16ZM99.6443 4.58377H99.9965C100.127 4.58377 100.362 4.57726 100.518 4.421C100.61 4.32985 100.675 4.18011 100.675 3.99129C100.675 3.80899 100.616 3.65924 100.518 3.56809C100.375 3.42485 100.166 3.40532 99.9769 3.40532H99.6443V4.58377Z" fill="#1E86C8"/>
<path d="M104.51 3.43136H103.101V4.27126H104.438V5.11766H103.101V6.08126H104.51V6.92766H102.123V2.58496H104.51V3.43136Z" fill="#1E86C8"/>
<path d="M109.74 2.55209V5.39079L111.69 2.5H112.551V6.89479H111.573V4.04957L109.623 6.94687H108.762V2.55209H109.74Z" fill="#1E86C8"/>
<path d="M117.13 3.01534C117.534 3.41249 117.789 3.98544 117.789 4.65606C117.789 5.23552 117.587 5.828 117.13 6.28375C116.739 6.6744 116.21 6.92181 115.499 6.92181C114.71 6.92181 114.175 6.59627 113.862 6.28375C113.458 5.89311 113.204 5.30714 113.204 4.66908C113.204 4.04404 113.478 3.41249 113.856 3.02185C114.136 2.72886 114.665 2.38379 115.499 2.38379C116.158 2.38379 116.706 2.59213 117.13 3.01534ZM114.573 3.67944C114.391 3.86174 114.202 4.18077 114.202 4.66257C114.202 5.05972 114.325 5.37875 114.586 5.63919C114.86 5.90613 115.16 5.99728 115.493 5.99728C115.917 5.99728 116.223 5.83451 116.426 5.62616C116.589 5.46339 116.791 5.15739 116.791 4.65606C116.791 4.20681 116.615 3.87476 116.426 3.67944C116.217 3.47109 115.884 3.30832 115.493 3.30832C115.128 3.30832 114.802 3.44505 114.573 3.67944Z" fill="#1E86C8"/>
<path d="M119.517 4.21868H121.193V2.56494H122.165V6.90764H121.193V5.06509H119.517V6.90764H118.538V2.56494H119.517V4.21868Z" fill="#1E86C8"/>
<path d="M108.188 3.42502H106.44V6.94084H105.312V2.57861H108.188V3.42502Z" fill="#1E86C8"/>
</svg>
